<svg xmlns="http://www.w3.org/2000/svg" viewBox="0 0 32 54"><defs><style>.cls-1{fill:#f0f0f0;fill-rule:evenodd;}</style></defs><title>family-chapternav-tv-master-10-claudia</title><g id="Light"><path id="_TV" data-name="TV" class="cls-1" d="M31.37,23.26a6.77,6.77,0,0,0-4.3-3.86A13.93,13.93,0,0,0,23.2,19H8.8a13.93,13.93,0,0,0-3.87.41,6.77,6.77,0,0,0-4.3,3.86A12.54,12.54,0,0,0,0,27.8V42.2a12.54,12.54,0,0,0,.63,4.54,6.77,6.77,0,0,0,4.3,3.86A13.93,13.93,0,0,0,8.8,51H23.2a13.93,13.93,0,0,0,3.87-.41,6.77,6.77,0,0,0,4.3-3.86A12.54,12.54,0,0,0,32,42.2V27.8A12.54,12.54,0,0,0,31.37,23.26ZM10.14,31a2.16,2.16,0,0,1,1.44-.74h.07v.07a2.18,2.18,0,0,1-.5,1.56h0a1.87,1.87,0,0,1-1.34.69H9.64v-.06A2.06,2.06,0,0,1,10.14,31Zm3.46,6.25a5.21,5.21,0,0,1-.65,1.33c-.37.55-.8,1.17-1.5,1.18a1.72,1.72,0,0,1-.75-.18,1.83,1.83,0,0,0-.79-.19,2,2,0,0,0-.84.2,1.87,1.87,0,0,1-.7.18h0c-.63,0-1.09-.6-1.51-1.22-.89-1.28-1.4-3.4-.59-4.79a2.35,2.35,0,0,1,2-1.21,2.64,2.64,0,0,1,1,.24,1.73,1.73,0,0,0,.55.16,1.75,1.75,0,0,0,.53-.16,3,3,0,0,1,1.27-.28h0a2.24,2.24,0,0,1,1.77,1l0,.06-.05,0,0,0a2,2,0,0,0-1,1.72,2,2,0,0,0,1.2,1.83l0,0,0,0ZM19,33.76H17.62v3.9c0,.58.24.83.79.83l.46,0H19v1.21h-.05a4,4,0,0,1-.79.06c-1.39,0-2-.56-2-2v-4h-1V32.55h1V30.88h1.47v1.67H19Zm4.62,5.93h-1.5l-2.6-7.14H21l1.79,5.54,1.79-5.54h1.54Z"/></g><head xmlns=""/></svg>