<svg xmlns="http://www.w3.org/2000/svg" viewBox="0 0 45 54"><defs><style>.cls-1{fill:#f0f0f0;}</style></defs><title>family-chapternav-tv-02-lily-COlily</title><g id="Light"><path class="cls-1" d="M9,31.56A3.55,3.55,0,0,0,9.78,29a3.52,3.52,0,0,0-2.33,1.21,3.32,3.32,0,0,0-.84,2.43A2.93,2.93,0,0,0,9,31.56"/><path class="cls-1" d="M9,31.5A3.55,3.55,0,0,0,9.78,29a3.52,3.52,0,0,0-2.33,1.21,3.32,3.32,0,0,0-.84,2.43A2.93,2.93,0,0,0,9,31.5"/><path class="cls-1" d="M9.77,32.79c-1.3-.08-2.4.74-3,.74s-1.57-.7-2.6-.68a3.83,3.83,0,0,0-3.26,2c-1.4,2.4-.37,6,1,7.93.66,1,1.45,2,2.5,2s1.38-.64,2.58-.64,1.55.64,2.6.62,1.76-1,2.42-1.94a8.61,8.61,0,0,0,1.08-2.23A3.52,3.52,0,0,1,11,37.36a3.59,3.59,0,0,1,1.71-3,3.71,3.71,0,0,0-2.89-1.57"/><path class="cls-1" d="M20,31.51V34h2v1.72H20v5.85c0,.91.4,1.33,1.29,1.33a6.6,6.6,0,0,0,.72-.05v1.71a6,6,0,0,1-1.21.1c-2.15,0-3-.81-3-2.86V35.75H16.29V34h1.54V31.51Z"/><path class="cls-1" d="M29.32,44.63H27L23.16,34h2.32l2.66,8.48h0L30.84,34h2.28Z"/><polygon class="cls-1" points="45 38.26 40.77 38.26 40.77 34.02 38.76 34.02 38.76 38.26 34.55 38.26 34.55 40.25 38.76 40.25 38.76 44.51 40.77 44.51 40.77 40.25 45 40.25 45 38.26"/></g><head xmlns=""/></svg>