<svg xmlns="http://www.w3.org/2000/svg" width="35" height="54" viewBox="0 0 35 54"><defs><style>.cls-1{fill:#333;}</style></defs><title>watch_nav_watch_os_large</title><g id="Light"><g id="watchOS"><path class="cls-1" d="M14.14,28.43l1-.07v.2a1,1,0,0,1-1.08.92c-.34,0-.7-.14-.7-.52S13.45,28.47,14.14,28.43Zm-1.61,5.72c-2.35,0-3.81,1.79-3.81,4.67s1.46,4.69,3.81,4.69,3.8-1.8,3.8-4.69S14.88,34.15,12.53,34.15Zm22,.35a16.87,16.87,0,0,1-17,17,17,17,0,0,1,0-34A16.87,16.87,0,0,1,34.5,34.5ZM20,28a2.26,2.26,0,0,0,2.25,2.54,1.94,1.94,0,0,0,2.07-1.6l0-.23H23.22l0,.15a.89.89,0,0,1-1,.63c-.69,0-1.11-.57-1.11-1.49s.42-1.45,1.11-1.45a.91.91,0,0,1,1,.65l0,.15h1.11l0-.23a2,2,0,0,0-2.07-1.62A2.24,2.24,0,0,0,20,28Zm-3.23-1.42h.72v2.52c0,1,.46,1.39,1.49,1.39a2.68,2.68,0,0,0,.46,0l.16,0v-1l-.21,0H19c-.31,0-.46-.08-.46-.55V26.55h1v-1h-1V24.4H17.46v1.15h-.72v1Zm-1.61.62v.21l-1.1.07c-1.16.07-1.82.63-1.82,1.52a1.56,1.56,0,0,0,1.71,1.54,1.78,1.78,0,0,0,1.24-.46v.38h1.09V27.17c0-1.06-.71-1.7-1.91-1.7a1.77,1.77,0,0,0-1.95,1.37l0,.23h1.1l0-.15c.08-.26.37-.41.82-.41C15.05,26.51,15.13,26.88,15.13,27.17Zm-8,3.26H8l0-.15.83-2.91.84,2.91.05.15h1l0-.15L12,25.81l.07-.26H11l0,.16-.72,3-.84-3,0-.15h-1l0,.15-.84,3-.73-3,0-.16H5.57l.07.26,1.25,4.47,0,.15Zm10.75,8.39c0-3.74-2-6.06-5.3-6.06s-5.3,2.32-5.3,6.06,2,6.08,5.3,6.08S17.83,42.57,17.83,38.82Zm9.32,2.59c0-1.71-1-2.69-3.43-3.29l-1.12-.28c-1.87-.47-2.26-1.05-2.26-1.79,0-1.13,1-1.92,2.54-1.92A2.38,2.38,0,0,1,25.5,36l0,.17H27l0-.21c-.12-1.85-1.83-3.18-4.06-3.18-2.39,0-4.06,1.36-4.06,3.32,0,1.63,1,2.59,3.16,3.13l1.29.33c1.63.41,2.36,1,2.36,2,0,1.15-1.13,2-2.7,2s-2.82-.82-3-2l0-.17H18.51l0,.21c.14,2,1.88,3.35,4.34,3.35S27.15,43.5,27.15,41.41Zm1.94-14.08a1.68,1.68,0,0,0-1.74-1.86,1.75,1.75,0,0,0-1.25.45V23.78H25v6.65H26.1V27.58a1,1,0,0,1,1-1.06c.36,0,.84.1.84,1v2.93h1.11v-3.1Z"/></g></g><head xmlns=""/></svg>