<svg xmlns="http://www.w3.org/2000/svg" width="36" height="54" viewBox="0 0 36 54"><defs><style>.cls-1{fill:#333;}</style></defs><title>gift_cards_light_large</title><g id="Light"><g id="Gift_Cards" data-name="Gift Cards"><path id="Icon" class="cls-1" d="M32,25H4a4,4,0,0,0-4,4V47a4,4,0,0,0,4,4H32a4,4,0,0,0,4-4V29A4,4,0,0,0,32,25ZM18.69,31.36a2.68,2.68,0,0,1,1.94-1,2.67,2.67,0,0,1-.69,2,2.31,2.31,0,0,1-1.94,1A2.69,2.69,0,0,1,18.69,31.36Zm3.77,10.55c-.53.81-1.16,1.71-2.06,1.71s-1.18-.57-2.17-.57-1.36.57-2.17.57-1.5-.91-2.06-1.71a8.46,8.46,0,0,1-1.37-4.36,4.2,4.2,0,0,1,.57-2.29,3.36,3.36,0,0,1,2.74-1.72c.86,0,1.65.57,2.17.57a17.58,17.58,0,0,1,2.52-.57A3,3,0,0,1,23,34.91a2.93,2.93,0,0,0-1.48,2.5,3,3,0,0,0,1.83,2.66A7.2,7.2,0,0,1,22.46,41.91Z"/></g></g><head xmlns=""/></svg>