<svg xmlns="http://www.w3.org/2000/svg" width="33" height="54" viewBox="0 0 33 54"><defs><style>.cls-1{fill:#333;}</style></defs><title>accessories_light_large</title><g id="Light"><g id="Accessories"><path id="Mac_Accessories" data-name="Mac Accessories" class="cls-1" d="M30,47.75v-8a3,3,0,0,0-3-3h0a3,3,0,0,0-3,3v8a3,3,0,0,0,3,3h0A3,3,0,0,0,30,47.75Zm-24,3H6a3,3,0,0,0,3-3v-8a3,3,0,0,0-3-3H6a3,3,0,0,0-3,3v8A3,3,0,0,0,6,50.75ZM16.5,22.5c7.86,0,14.5,7.36,14.5,15.75v9.52h1.5V38.25c0-9.19-7.34-17.25-16-17.25S.5,29.06.5,38.25v9.52H2V38.25C2,29.86,8.64,22.5,16.5,22.5Z"/></g></g><head xmlns=""/></svg>