<svg xmlns="http://www.w3.org/2000/svg" width="36" height="54" viewBox="0 0 36 54"><defs><style>.cls-1{fill:#333;}</style></defs><title>iphone_apple_card_large</title><g id="Light"><path id="Apple_Card" data-name="Apple Card" class="cls-1" d="M32,25H4a4,4,0,0,0-4,4V47a4,4,0,0,0,4,4H32a4,4,0,0,0,4-4V29A4,4,0,0,0,32,25ZM7.29,28.45a1.45,1.45,0,0,1,1-.53A1.48,1.48,0,0,1,8,29a1.31,1.31,0,0,1-1.06.56A1.46,1.46,0,0,1,7.29,28.45Zm2,5.7c-.29.44-.63.93-1.11.93s-.65-.31-1.18-.31-.74.31-1.18.31-.81-.49-1.12-.93A4.57,4.57,0,0,1,4,31.8a2.29,2.29,0,0,1,.31-1.24,1.83,1.83,0,0,1,1.49-.93c.47,0,.89.31,1.18.31a9.18,9.18,0,0,1,1.36-.31,1.61,1.61,0,0,1,1.3.74,1.57,1.57,0,0,0-.81,1.35,1.64,1.64,0,0,0,1,1.44A4.19,4.19,0,0,1,9.33,34.15Z"/></g><head xmlns=""/></svg>