<svg xmlns="http://www.w3.org/2000/svg" viewBox="0 0 259.19 49.6"><defs><style>.cls-1{fill:#39485d;}.cls-2{fill:#44b078;}</style></defs><title>vuewordpressLogoHorizontal</title><g id="Warstwa_2" data-name="Warstwa 2"><g id="Warstwa_1-2" data-name="Warstwa 1"><polygon class="cls-1" points="69.61 0 59.04 0 52.43 11.45 45.82 0 45.82 0 35.25 0 35.25 0 28.64 11.45 22.02 0 11.45 0 28.64 29.76 40.53 9.15 52.43 29.76 69.61 0"/><polygon class="cls-2" points="69.61 0 52.43 29.76 46.26 19.07 46.26 19.07 40.59 9.26 40.59 9.26 40.59 9.25 40.58 9.25 40.58 9.25 40.58 9.25 40.46 9.28 34.76 19.14 34.79 19.19 28.64 29.76 28.64 29.76 28.64 29.76 11.45 0 0 0 28.64 49.6 40.51 29.04 52.43 49.6 81.06 0 69.61 0"/><path d="M100.53,16.36,97.22,16V14.88h7.12V16l-3.15.32Zm-2.17-1.48h3.34l4.41,12.87-.6.27L110,14.88h1.43l-5.5,16h-1.66Zm11.58,1.48L107.46,16V14.88h5.37V16l-2.47.36Z"/><path d="M116.35,26.71c0,1.81.56,2.42,1.62,2.42a4.74,4.74,0,0,0,3.24-1.89h.72v1.41h-1.4l.8-.53c-1.25,2-2.87,3-4.64,3-2,0-3.28-1.15-3.25-4.32l.09-6.4.63.61L112,20.55v-.93l4.19-.5.31.25-.12,3.38ZM121,31l-.26-2.82.08-7.8.63.62-2.15-.48v-.88l4.11-.55.31.25-.08,3.38v7.58l-1.09-1,2.55.54v1Z"/><path d="M137,23.8a5,5,0,0,1-.15,1.32h-9.13V24h5.1c1.15,0,1.43-.49,1.43-1.37a2.26,2.26,0,0,0-2.14-2.48c-1.26,0-2.59,1.19-2.59,4.64,0,3,1.49,4.46,3.58,4.46a4,4,0,0,0,3.13-1.49l.69.6a5,5,0,0,1-4.81,2.8c-3.36,0-5.65-2.26-5.65-6A5.84,5.84,0,0,1,132.31,19,4.5,4.5,0,0,1,137,23.8Z"/><path d="M146.22,16.36,143,16V14.88h7V16l-3.08.36Zm8.16-1.48H156l3.95,13-1,1.29,4-14.26h1.36l-4.54,16H158.1l-4.19-13,.9-.4-4.14,13.36H149l-4.71-16h3.26l3.41,13-1.08,1.29Zm.48,1.48-3-.36V14.88h6.84V16l-2.95.36Zm8.1,0L160.58,16V14.88h5.27V16l-2.33.36Z"/><path d="M165,25.05a5.8,5.8,0,1,1,11.58,0c0,3.86-2.57,6.09-5.79,6.09S165,28.89,165,25.05Zm8.45,0c0-3.31-1-4.94-2.66-4.94s-2.66,1.63-2.66,4.94.92,4.89,2.66,4.89S173.49,28.4,173.49,25.08Z"/><path d="M179.93,25.76V24.49c0-1.32,0-1.93-.08-2.89l-1.69-.22v-.89l4-1.52.38.25.26,3v3.57c0,1.49,0,4,.07,5h-3C179.9,29.72,179.93,27.25,179.93,25.76Zm-1.58,4.06,2.47-.48h1.52l2.46.48v1h-6.45Zm3.09-7.27H183l-.46.42c.59-2.6,2.16-4,3.59-4a1.87,1.87,0,0,1,1.89,1.3c0,1.19-.59,1.86-1.55,1.86a2.16,2.16,0,0,1-1.65-.85l-.67-.74,1.07.06a5.69,5.69,0,0,0-2.47,3.57l-1.34-.09Z"/><path d="M194.71,29.43c1.19,0,2-.7,2.94-2l.25.52c-1.05,2.11-2.35,3.18-4.35,3.18-2.82,0-4.85-2.29-4.85-6S191.08,19,193.91,19c1.72,0,2.81.85,4,2.86l-.24.54c-1.16-1.24-2-1.72-2.93-1.72-1.62,0-2.95,1.4-2.95,4.46S193,29.43,194.71,29.43Zm6.58.39v1l-4.2.26-.27-2.29V21.26l.11-.29V15.45l-1.87-.24v-.92l4.38-1.09.36.22-.09,3.38v14l-1-1.49Z"/><path d="M202.66,16V14.88h3.62v1.48H206Zm4.1,13.31,3.31.36V30.8h-7.41V29.67l3.31-.36Zm-2-7c0-2.48,0-5-.07-7.44h3.26c-.08,2.42-.08,4.92-.08,7.44v1.46c0,2.2,0,4.55.08,7h-3.26c.07-2.43.07-4.92.07-7.44Zm4.09,2.29h-2.53V23.38H209c2.52,0,3.62-1.52,3.62-3.75s-1.23-3.51-3.72-3.51h-2.63V14.88h2.87c4.51,0,6.52,1.92,6.52,4.75S213.87,24.61,208.81,24.61Z"/><path d="M218.4,25.76V24.49c0-1.32,0-1.93-.08-2.89l-1.69-.22v-.89l4-1.52.38.25.26,3v3.57c0,1.49,0,4,.07,5h-3C218.37,29.72,218.4,27.25,218.4,25.76Zm-1.57,4.06,2.46-.48h1.52l2.46.48v1h-6.44Zm3.08-7.27h1.59L221,23c.59-2.6,2.16-4,3.59-4a1.89,1.89,0,0,1,1.9,1.3c0,1.19-.59,1.86-1.55,1.86a2.18,2.18,0,0,1-1.66-.85l-.67-.74,1.07.06a5.68,5.68,0,0,0-2.46,3.57l-1.35-.09Z"/><path d="M237.71,23.8a5,5,0,0,1-.15,1.32h-9.13V24h5.1c1.15,0,1.43-.49,1.43-1.37a2.26,2.26,0,0,0-2.13-2.48c-1.26,0-2.6,1.19-2.6,4.64,0,3,1.49,4.46,3.58,4.46a4,4,0,0,0,3.13-1.49l.7.6a5.07,5.07,0,0,1-4.82,2.8c-3.35,0-5.64-2.26-5.64-6A5.83,5.83,0,0,1,233,19,4.5,4.5,0,0,1,237.71,23.8Z"/><path d="M239.63,30.13l0-2.79h1.61l.59,3-1.26-.51V29a5,5,0,0,0,3,1c1.61,0,2.42-.59,2.42-1.62s-.58-1.41-2.13-1.91l-1.2-.39c-1.8-.6-2.9-1.68-2.9-3.41,0-2,1.62-3.63,4.58-3.63a7.1,7.1,0,0,1,3.57,1l-.13,2.53h-1.57l-.59-2.69,1.1.48V21a3.87,3.87,0,0,0-2.44-.84c-1.28,0-2,.56-2,1.5s.47,1.3,2.12,1.85l.94.3c2.34.78,3.25,2,3.25,3.61,0,2.16-1.8,3.71-5,3.71A7.65,7.65,0,0,1,239.63,30.13Z"/><path d="M250.28,30.13V27.34h1.6l.6,3-1.27-.51V29a5,5,0,0,0,3,1c1.61,0,2.42-.59,2.42-1.62s-.57-1.41-2.12-1.91l-1.2-.39c-1.81-.6-2.91-1.68-2.91-3.41,0-2,1.63-3.63,4.58-3.63a7.11,7.11,0,0,1,3.58,1l-.14,2.53h-1.57l-.58-2.69,1.1.48V21a3.89,3.89,0,0,0-2.45-.84c-1.28,0-2,.56-2,1.5s.48,1.3,2.12,1.85l.95.3c2.34.78,3.25,2,3.25,3.61,0,2.16-1.81,3.71-5,3.71A7.65,7.65,0,0,1,250.28,30.13Z"/></g></g></svg>