<svg xmlns="http://www.w3.org/2000/svg" viewBox="0 0 161.97 136.7"><defs><style>.cls-1{fill:#39485d;}.cls-2{fill:#44b078;}</style></defs><title>vuewordpressLogoVertical</title><g id="Warstwa_2" data-name="Warstwa 2"><g id="Warstwa_1-2" data-name="Warstwa 1"><polygon class="cls-1" points="129.57 0 112 0 101.01 19.04 90.02 0 90.02 0 72.45 0 72.45 0 61.45 19.04 50.46 0 32.89 0 61.45 49.47 81.23 15.21 101.01 49.47 129.57 0"/><polygon class="cls-2" points="129.57 0 101.01 49.47 90.75 31.7 90.75 31.7 81.33 15.39 81.33 15.39 81.33 15.38 81.31 15.38 81.31 15.38 81.31 15.38 81.11 15.42 71.64 31.82 71.69 31.9 61.45 49.47 61.45 49.47 61.45 49.47 32.89 0 13.85 0 61.45 82.45 81.19 48.27 101.01 82.45 148.61 0 129.57 0"/><path d="M3.31,121.93,0,121.57v-1.13H7.12v1.16L4,121.93Zm-2.17-1.49H4.48l4.41,12.88-.6.26,4.44-13.14h1.43l-5.5,16H7Zm11.58,1.49-2.48-.33v-1.16h5.37v1.13l-2.47.36Z"/><path d="M19.13,132.27c0,1.81.56,2.43,1.62,2.43A4.77,4.77,0,0,0,24,132.81h.72v1.41h-1.4l.8-.53c-1.25,2-2.87,3-4.64,3-2,0-3.28-1.15-3.25-4.32l.09-6.4.63.62-2.19-.48v-.93l4.19-.51.31.25-.12,3.38Zm4.62,4.32-.26-2.82.08-7.79.63.62-2.15-.48v-.89l4.1-.55.32.25-.08,3.38v7.58l-1.09-1,2.55.54v1Z"/><path d="M39.79,129.37a4.82,4.82,0,0,1-.15,1.31H30.51v-1.14h5.1c1.15,0,1.43-.49,1.43-1.36a2.27,2.27,0,0,0-2.14-2.49c-1.26,0-2.59,1.19-2.59,4.64,0,3,1.49,4.46,3.58,4.46A4,4,0,0,0,39,133.3l.69.61a5.05,5.05,0,0,1-4.81,2.79c-3.36,0-5.65-2.26-5.65-6a5.84,5.84,0,0,1,5.84-6.15A4.5,4.5,0,0,1,39.79,129.37Z"/><path d="M49,121.93l-3.26-.36v-1.13h7v1.13l-3.08.36Zm8.16-1.49h1.62l3.95,13-1,1.3,4-14.27h1.36l-4.54,16H60.88l-4.19-13,.9-.39-4.14,13.35H51.81l-4.71-16h3.26l3.41,13-1.08,1.3Zm.48,1.49-3-.36v-1.13h6.84v1.13l-2.95.36Zm8.1,0-2.38-.36v-1.13h5.27v1.13l-2.33.36Z"/><path d="M67.82,130.62a5.8,5.8,0,1,1,11.58,0c0,3.86-2.57,6.08-5.79,6.08S67.82,134.45,67.82,130.62Zm8.45,0c0-3.31-1-4.94-2.66-4.94S71,127.33,71,130.64s.92,4.89,2.66,4.89S76.27,134,76.27,130.64Z"/><path d="M82.71,131.32v-1.27c0-1.32,0-1.93-.08-2.89L80.94,127v-.9l4-1.52.38.25.25,3v3.56c0,1.49,0,4,.08,5h-3C82.68,135.28,82.71,132.81,82.71,131.32Zm-1.58,4.06,2.47-.48h1.52l2.46.48v1H81.13Zm3.09-7.26h1.59l-.46.41c.59-2.59,2.16-4,3.59-4a1.87,1.87,0,0,1,1.89,1.3c0,1.19-.59,1.86-1.55,1.86a2.11,2.11,0,0,1-1.65-.85l-.67-.73,1.07.06a5.66,5.66,0,0,0-2.47,3.57l-1.34-.09Z"/><path d="M97.49,135c1.19,0,2-.69,2.94-2l.25.51c-1.05,2.11-2.35,3.18-4.35,3.18-2.82,0-4.85-2.28-4.85-6s2.38-6.19,5.21-6.19c1.72,0,2.81.86,4,2.86l-.24.54c-1.16-1.23-2-1.71-2.93-1.71-1.62,0-3,1.39-3,4.45S95.78,135,97.49,135Zm6.58.39v1l-4.2.26-.27-2.29v-7.51l.11-.28V121l-1.87-.24v-.93l4.38-1.08.36.22-.09,3.38v14l-1-1.48Z"/><path d="M105.44,121.57v-1.13h3.62v1.49h-.31Zm4.1,13.31,3.31.36v1.12h-7.41v-1.12l3.31-.36Zm-2-7c0-2.47,0-5-.07-7.44h3.26c-.08,2.43-.08,4.92-.08,7.44v1.47c0,2.2,0,4.54.08,7h-3.26c.07-2.42.07-4.92.07-7.44Zm4.09,2.29h-2.53v-1.23h2.73c2.52,0,3.62-1.51,3.62-3.75s-1.23-3.5-3.72-3.5h-2.63v-1.25h2.87c4.51,0,6.52,1.93,6.52,4.76S116.65,130.17,111.59,130.17Z"/><path d="M121.18,131.32v-1.27c0-1.32,0-1.93-.08-2.89l-1.69-.21v-.9l4-1.52.38.25.26,3v3.56c0,1.49,0,4,.07,5h-3C121.15,135.28,121.18,132.81,121.18,131.32Zm-1.57,4.06,2.46-.48h1.52l2.46.48v1h-6.44Zm3.08-7.26h1.59l-.46.41c.59-2.59,2.16-4,3.59-4a1.89,1.89,0,0,1,1.9,1.3c0,1.19-.6,1.86-1.56,1.86a2.14,2.14,0,0,1-1.65-.85l-.67-.73,1.07.06a5.61,5.61,0,0,0-2.46,3.57l-1.35-.09Z"/><path d="M140.49,129.37a4.82,4.82,0,0,1-.15,1.31h-9.13v-1.14h5.1c1.15,0,1.43-.49,1.43-1.36a2.27,2.27,0,0,0-2.13-2.49c-1.27,0-2.6,1.19-2.6,4.64,0,3,1.49,4.46,3.58,4.46a4,4,0,0,0,3.13-1.49l.7.61a5.08,5.08,0,0,1-4.82,2.79c-3.35,0-5.64-2.26-5.64-6a5.83,5.83,0,0,1,5.83-6.15A4.5,4.5,0,0,1,140.49,129.37Z"/><path d="M142.41,135.69l0-2.78H144l.59,3-1.26-.51v-.91a5,5,0,0,0,3,1c1.61,0,2.42-.59,2.42-1.63s-.58-1.4-2.13-1.91l-1.2-.39c-1.8-.59-2.9-1.68-2.9-3.4,0-2,1.62-3.64,4.58-3.64a7.11,7.11,0,0,1,3.57,1l-.13,2.53H149l-.59-2.7,1.1.48v.76a3.87,3.87,0,0,0-2.44-.84c-1.28,0-2,.56-2,1.5s.47,1.3,2.12,1.85l.94.29c2.34.79,3.25,2,3.25,3.61,0,2.17-1.8,3.71-5,3.71A7.65,7.65,0,0,1,142.41,135.69Z"/><path d="M153.06,135.69v-2.78h1.6l.6,3-1.27-.51v-.91a5,5,0,0,0,3,1c1.61,0,2.42-.59,2.42-1.63s-.58-1.4-2.12-1.91l-1.2-.39c-1.81-.59-2.91-1.68-2.91-3.4,0-2,1.63-3.64,4.58-3.64a7.06,7.06,0,0,1,3.57,1l-.13,2.53H159.6l-.58-2.7,1.1.48v.76a3.89,3.89,0,0,0-2.45-.84c-1.28,0-2,.56-2,1.5s.48,1.3,2.12,1.85l.95.29c2.34.79,3.25,2,3.25,3.61,0,2.17-1.81,3.71-5,3.71A7.65,7.65,0,0,1,153.06,135.69Z"/></g></g></svg>