<svg xmlns="http://www.w3.org/2000/svg" viewBox="0 0 134.76 82.45"><defs><style>.cls-1{fill:#39485d;}.cls-2{fill:#44b078;}</style></defs><title>vuewordpressMark</title><g id="Warstwa_2" data-name="Warstwa 2"><g id="Warstwa_1-2" data-name="Warstwa 1"><polygon class="cls-1" points="115.72 0 98.15 0 87.16 19.04 76.16 0 76.16 0 58.6 0 58.59 0 47.6 19.04 36.61 0 19.04 0 47.6 49.47 67.38 15.21 87.16 49.47 115.72 0"/><polygon class="cls-2" points="115.72 0 87.16 49.47 76.9 31.7 76.9 31.7 67.48 15.39 67.48 15.39 67.47 15.38 67.46 15.38 67.46 15.38 67.45 15.38 67.26 15.42 57.79 31.82 57.84 31.9 47.6 49.47 47.6 49.47 47.6 49.47 19.04 0 0 0 47.6 82.45 67.33 48.27 87.16 82.45 134.76 0 115.72 0"/></g></g></svg>