<svg xmlns="http://www.w3.org/2000/svg" viewBox="0 0 141.91 141.91"><defs><style>.cls-1{fill:none;}.cls-2{fill:#39485d;}.cls-3{fill:#44b078;}</style></defs><title>vueWordpressFavicon</title><g id="Warstwa_2" data-name="Warstwa 2"><g id="Warstwa_1-2" data-name="Warstwa 1"><rect class="cls-1" width="141.91" height="141.91"/><polygon class="cls-2" points="119.29 30.73 101.72 30.73 90.73 49.77 79.74 30.73 79.74 30.73 62.17 30.73 62.17 30.73 51.18 49.77 40.18 30.73 22.61 30.73 51.18 80.2 70.95 45.94 90.73 80.2 119.29 30.73"/><polygon class="cls-3" points="119.29 30.73 90.73 80.2 80.47 62.43 80.47 62.43 71.06 46.12 71.05 46.12 71.05 46.1 71.04 46.11 71.03 46.1 71.03 46.11 70.83 46.15 61.37 62.55 61.41 62.63 51.18 80.2 51.18 80.2 51.18 80.2 22.61 30.73 3.57 30.73 51.18 113.18 70.91 79 90.73 113.18 138.33 30.73 119.29 30.73"/></g></g></svg>